{
	"asset":{
		"generator":"Khronos glTF Blender I/O v4.3.47",
		"version":"2.0"
	},
	"extensionsUsed":[
		"KHR_materials_specular"
	],
	"scene":0,
	"scenes":[
		{
			"name":"Scene",
			"nodes":[
				0,
				1,
				2
			]
		}
	],
	"nodes":[
		{
			"mesh":0,
			"name":"chainmail",
			"rotation":[
				0.7071068286895752,
				0,
				0,
				0.7071068286895752
			]
		},
		{
			"mesh":1,
			"name":"leather",
			"rotation":[
				0.7071068286895752,
				0,
				0,
				0.7071068286895752
			]
		},
		{
			"mesh":2,
			"name":"Platemail",
			"rotation":[
				0.7071068286895752,
				0,
				0,
				0.7071068286895752
			]
		}
	],
	"materials":[
		{
			"doubleSided":true,
			"extensions":{
				"KHR_materials_specular":{
					"specularFactor":0
				}
			},
			"name":"chainmail",
			"pbrMetallicRoughness":{
				"baseColorFactor":[
					0.800000011920929,
					0.800000011920929,
					0.800000011920929,
					1
				],
				"metallicFactor":0
			}
		},
		{
			"doubleSided":true,
			"extensions":{
				"KHR_materials_specular":{
					"specularFactor":0
				}
			},
			"name":"leather",
			"pbrMetallicRoughness":{
				"baseColorFactor":[
					0.800000011920929,
					0.800000011920929,
					0.800000011920929,
					1
				],
				"metallicFactor":0
			}
		},
		{
			"doubleSided":true,
			"extensions":{
				"KHR_materials_specular":{
					"specularFactor":0
				}
			},
			"name":"Platemail",
			"pbrMetallicRoughness":{
				"baseColorFactor":[
					0.800000011920929,
					0.800000011920929,
					0.800000011920929,
					1
				],
				"metallicFactor":0
			}
		}
	],
	"meshes":[
		{
			"name":"chainmail",
			"primitives":[
				{
					"attributes":{
						"POSITION":0,
						"NORMAL":1,
						"TEXCOORD_0":2
					},
					"indices":3,
					"material":0
				}
			]
		},
		{
			"name":"leather",
			"primitives":[
				{
					"attributes":{
						"POSITION":4,
						"NORMAL":5,
						"TEXCOORD_0":6
					},
					"indices":7,
					"material":1
				}
			]
		},
		{
			"name":"Platemail",
			"primitives":[
				{
					"attributes":{
						"POSITION":8,
						"NORMAL":9,
						"TEXCOORD_0":10
					},
					"indices":11,
					"material":2
				}
			]
		}
	],
	"accessors":[
		{
			"bufferView":0,
			"componentType":5126,
			"count":2499,
			"max":[
				0.5437530279159546,
				0.12210699915885925,
				-0.14391300082206726
			],
			"min":[
				-0.5459619760513306,
				-0.21545100212097168,
				-1.9854849576950073
			],
			"type":"VEC3"
		},
		{
			"bufferView":1,
			"componentType":5126,
			"count":2499,
			"type":"VEC3"
		},
		{
			"bufferView":2,
			"componentType":5126,
			"count":2499,
			"type":"VEC2"
		},
		{
			"bufferView":3,
			"componentType":5123,
			"count":12948,
			"type":"SCALAR"
		},
		{
			"bufferView":4,
			"componentType":5126,
			"count":4749,
			"max":[
				0.6979309916496277,
				0.38555198907852173,
				0.01795399934053421
			],
			"min":[
				-0.7001410126686096,
				-0.1627199947834015,
				-1.5882200002670288
			],
			"type":"VEC3"
		},
		{
			"bufferView":5,
			"componentType":5126,
			"count":4749,
			"type":"VEC3"
		},
		{
			"bufferView":6,
			"componentType":5126,
			"count":4749,
			"type":"VEC2"
		},
		{
			"bufferView":7,
			"componentType":5123,
			"count":24408,
			"type":"SCALAR"
		},
		{
			"bufferView":8,
			"componentType":5126,
			"count":33391,
			"max":[
				0.7019010186195374,
				0.3846459984779358,
				0.02116299979388714
			],
			"min":[
				-0.7019010186195374,
				-0.2276429980993271,
				-2.2385590076446533
			],
			"type":"VEC3"
		},
		{
			"bufferView":9,
			"componentType":5126,
			"count":33391,
			"type":"VEC3"
		},
		{
			"bufferView":10,
			"componentType":5126,
			"count":33391,
			"type":"VEC2"
		},
		{
			"bufferView":11,
			"componentType":5123,
			"count":161940,
			"type":"SCALAR"
		}
	],
	"bufferViews":[
		{
			"buffer":0,
			"byteLength":29988,
			"byteOffset":0,
			"target":34962
		},
		{
			"buffer":0,
			"byteLength":29988,
			"byteOffset":29988,
			"target":34962
		},
		{
			"buffer":0,
			"byteLength":19992,
			"byteOffset":59976,
			"target":34962
		},
		{
			"buffer":0,
			"byteLength":25896,
			"byteOffset":79968,
			"target":34963
		},
		{
			"buffer":0,
			"byteLength":56988,
			"byteOffset":105864,
			"target":34962
		},
		{
			"buffer":0,
			"byteLength":56988,
			"byteOffset":162852,
			"target":34962
		},
		{
			"buffer":0,
			"byteLength":37992,
			"byteOffset":219840,
			"target":34962
		},
		{
			"buffer":0,
			"byteLength":48816,
			"byteOffset":257832,
			"target":34963
		},
		{
			"buffer":0,
			"byteLength":400692,
			"byteOffset":306648,
			"target":34962
		},
		{
			"buffer":0,
			"byteLength":400692,
			"byteOffset":707340,
			"target":34962
		},
		{
			"buffer":0,
			"byteLength":267128,
			"byteOffset":1108032,
			"target":34962
		},
		{
			"buffer":0,
			"byteLength":323880,
			"byteOffset":1375160,
			"target":34963
		}
	],
	"buffers":[
		{
			"byteLength":1699040,
			"uri":"night.bin"
		}
	]
}
