{
	"asset":{
		"generator":"Khronos glTF Blender I/O v4.3.47",
		"version":"2.0"
	},
	"extensionsUsed":[
		"KHR_materials_specular",
		"KHR_materials_ior"
	],
	"scene":0,
	"scenes":[
		{
			"name":"Scene",
			"nodes":[
				0
			]
		}
	],
	"nodes":[
		{
			"mesh":0,
			"name":"Tree_Japanese-larch_B",
			"rotation":[
				0.7071068286895752,
				0,
				0,
				0.7071068286895752
			]
		}
	],
	"materials":[
		{
			"doubleSided":true,
			"name":"Bark_Japanese-larch"
		},
		{
			"doubleSided":true,
			"extensions":{
				"KHR_materials_specular":{
					"specularFactor":0
				},
				"KHR_materials_ior":{
					"ior":1
				}
			},
			"name":"Leaf_Japanese-larch",
			"normalTexture":{
				"index":0
			},
			"pbrMetallicRoughness":{
				"baseColorTexture":{
					"index":1
				},
				"metallicFactor":0,
				"roughnessFactor":0.8658359050750732
			}
		}
	],
	"meshes":[
		{
			"name":"Tree_Japanese-larch_B",
			"primitives":[
				{
					"attributes":{
						"POSITION":0,
						"NORMAL":1,
						"TEXCOORD_0":2
					},
					"indices":3,
					"material":0
				},
				{
					"attributes":{
						"POSITION":4,
						"NORMAL":5,
						"TEXCOORD_0":6
					},
					"indices":7,
					"material":1
				}
			]
		}
	],
	"textures":[
		{
			"sampler":0,
			"source":0
		},
		{
			"sampler":0,
			"source":1
		}
	],
	"images":[
		{
			"mimeType":"image/png",
			"name":"Leaf_Larix-keampferi_Normal",
			"uri":"Leaf_Larix-keampferi_Normal.png"
		},
		{
			"mimeType":"image/png",
			"name":"Leaf_Larix-keampferi_Diffuse",
			"uri":"Leaf_Larix-keampferi_Diffuse.png"
		}
	],
	"accessors":[
		{
			"bufferView":0,
			"componentType":5126,
			"count":146198,
			"max":[
				3.607574939727783,
				5.668266773223877,
				0.00015999999595806003
			],
			"min":[
				-5.34002685546875,
				-3.583414077758789,
				-12.968589782714844
			],
			"type":"VEC3"
		},
		{
			"bufferView":1,
			"componentType":5126,
			"count":146198,
			"type":"VEC3"
		},
		{
			"bufferView":2,
			"componentType":5126,
			"count":146198,
			"type":"VEC2"
		},
		{
			"bufferView":3,
			"componentType":5125,
			"count":495747,
			"type":"SCALAR"
		},
		{
			"bufferView":4,
			"componentType":5126,
			"count":202377,
			"max":[
				3.6156129837036133,
				5.678250789642334,
				-1.9283419847488403
			],
			"min":[
				-5.344449996948242,
				-3.6011250019073486,
				-12.974014282226562
			],
			"type":"VEC3"
		},
		{
			"bufferView":5,
			"componentType":5126,
			"count":202377,
			"type":"VEC3"
		},
		{
			"bufferView":6,
			"componentType":5126,
			"count":202377,
			"type":"VEC2"
		},
		{
			"bufferView":7,
			"componentType":5125,
			"count":473103,
			"type":"SCALAR"
		}
	],
	"bufferViews":[
		{
			"buffer":0,
			"byteLength":1754376,
			"byteOffset":0,
			"target":34962
		},
		{
			"buffer":0,
			"byteLength":1754376,
			"byteOffset":1754376,
			"target":34962
		},
		{
			"buffer":0,
			"byteLength":1169584,
			"byteOffset":3508752,
			"target":34962
		},
		{
			"buffer":0,
			"byteLength":1982988,
			"byteOffset":4678336,
			"target":34963
		},
		{
			"buffer":0,
			"byteLength":2428524,
			"byteOffset":6661324,
			"target":34962
		},
		{
			"buffer":0,
			"byteLength":2428524,
			"byteOffset":9089848,
			"target":34962
		},
		{
			"buffer":0,
			"byteLength":1619016,
			"byteOffset":11518372,
			"target":34962
		},
		{
			"buffer":0,
			"byteLength":1892412,
			"byteOffset":13137388,
			"target":34963
		}
	],
	"samplers":[
		{
			"magFilter":9729,
			"minFilter":9987
		}
	],
	"buffers":[
		{
			"byteLength":15029800,
			"uri":"tree.bin"
		}
	]
}
